<?xml version="1.0" encoding="UTF-8" standalone="no"?>
<svg
   width="89.018997mm"
   height="26.5mm"
   viewBox="-186 -139 89.018997 26.5"
   version="1.1"
   id="svg20"
   sodipodi:docname="logo.svg"
   inkscape:version="1.2.2 (732a01da63, 2022-12-09)"
   xmlns:inkscape="http://www.inkscape.org/namespaces/inkscape"
   xmlns:sodipodi="http://sodipodi.sourceforge.net/DTD/sodipodi-0.dtd"
   xmlns="http://www.w3.org/2000/svg"
   xmlns:svg="http://www.w3.org/2000/svg"
   xmlns:rdf="http://www.w3.org/1999/02/22-rdf-syntax-ns#"
   xmlns:cc="http://creativecommons.org/ns#"
   xmlns:dc="http://purl.org/dc/elements/1.1/">
  <defs
     id="defs24" />
  <sodipodi:namedview
     id="namedview22"
     pagecolor="#505050"
     bordercolor="#eeeeee"
     borderopacity="1"
     inkscape:showpageshadow="0"
     inkscape:pageopacity="0"
     inkscape:pagecheckerboard="0"
     inkscape:deskcolor="#505050"
     inkscape:document-units="mm"
     showgrid="false"
     inkscape:zoom="3.0835391"
     inkscape:cx="117.39757"
     inkscape:cy="92.750567"
     inkscape:window-width="1680"
     inkscape:window-height="987"
     inkscape:window-x="-8"
     inkscape:window-y="-8"
     inkscape:window-maximized="1"
     inkscape:current-layer="svg20" />
  <title
     id="title14">svgOutput</title>
  <desc
     id="desc16">made with tinkercad</desc>
  <path
     d="m -100.36416,-130.86367 -0.079,0.0149 -0.107,0.0201 -0.188,0.012 -0.18801,-0.012 -0.18599,-0.035 -0.179,-0.058 -0.171,-0.081 -0.159,-0.1 -0.14599,-0.121 -0.129,-0.137 -0.11101,-0.152 -0.0221,-0.04 -0.0689,-0.125 -0.0548,-0.139 h -0.0219 -0.0633 -2.5 v 9 h -1 -2 -1 -2 -0.125 -0.875 -1.06301 v 3.5 h 1.06301 0.875 v 5 h -5 v -5 h 0.875 1.18699 v -3.5 h -1.18699 -0.875 -0.125 -1 -1 -1 -2 -1 v -8 -1 h -2.5 -0.0633 -0.0219 l -0.0548,0.139 -0.0689,0.125 -0.0221,0.04 -0.11099,0.152 -0.129,0.137 -0.06,0.0497 -0.086,0.0713 -0.15899,0.1 -0.17099,0.081 -0.179,0.058 -0.18601,0.035 -0.188,0.012 -0.18801,-0.012 -0.18599,-0.035 -0.179,-0.058 -0.171,-0.081 -0.159,-0.1 -0.14599,-0.121 -0.05,-0.0531 -0.079,-0.0839 -0.11101,-0.152 -0.091,-0.165 -0.0548,-0.139 -0.0142,-0.036 -0.047,-0.183 -0.024,-0.187 v -0.188 l 0.024,-0.187 0.047,-0.183 0.0142,-0.036 0.0548,-0.139 0.091,-0.165 0.11101,-0.152 0.079,-0.0839 0.05,-0.0531 0.14599,-0.121 0.1113,-0.07 0.0477,-0.03 0.171,-0.081 0.179,-0.058 0.18599,-0.035 0.18801,-0.012 0.188,0.012 0.18601,0.035 0.179,0.058 0.17099,0.081 0.0477,0.03 0.11129,0.07 0.14601,0.121 0.129,0.137 0.11099,0.152 0.091,0.165 0.0548,0.139 h 0.005 0.0281 0.0521 2.5 1 v 9 h 2 v -12 h -2 -1 -2.5 -0.0633 -0.0219 l -0.0548,0.139 -0.016,0.029 -0.075,0.136 -0.11099,0.152 -0.129,0.137 -0.06,0.0497 -0.086,0.0713 -0.15899,0.1 -0.17099,0.081 -0.179,0.058 -0.18601,0.035 -0.188,0.012 -0.18801,-0.012 -0.18599,-0.035 -0.179,-0.058 -0.171,-0.081 -0.159,-0.1 -0.14599,-0.121 -0.05,-0.0531 -0.079,-0.0839 -0.11101,-0.152 -0.091,-0.165 -0.0548,-0.139 -0.0142,-0.036 -0.047,-0.183 -0.024,-0.187 v -0.188 l 0.024,-0.187 0.047,-0.183 0.0142,-0.036 0.0548,-0.139 0.091,-0.165 0.11101,-0.152 0.079,-0.0839 0.05,-0.0531 0.14599,-0.121 0.159,-0.1 0.13933,-0.066 0.0317,-0.015 0.179,-0.058 0.18599,-0.035 0.18801,-0.012 0.188,0.012 0.18601,0.035 0.179,0.058 0.0317,0.015 0.13933,0.066 0.15899,0.1 0.086,0.0713 0.06,0.0497 0.129,0.137 0.11099,0.152 0.091,0.165 0.0548,0.139 h 0.005 0.0281 0.0521 2.5 1 2 1 v 13 h 1 1 v -11 -0.0451 -0.0348 -0.008 l -0.053,-0.0172 -0.171,-0.081 -0.159,-0.1 -0.14599,-0.121 -0.129,-0.137 -0.11101,-0.152 -0.075,-0.136 -0.016,-0.029 -0.069,-0.175 -0.047,-0.183 -0.024,-0.187 v -0.188 l 0.024,-0.187 0.047,-0.183 0.069,-0.175 0.091,-0.165 0.11101,-0.152 0.129,-0.137 0.14599,-0.121 0.159,-0.1 0.13933,-0.066 0.0317,-0.015 0.053,-0.0172 0.125,-0.0405 0.001,-3.3e-4 0.18599,-0.035 0.18801,-0.012 0.188,0.012 0.18601,0.035 0.12599,0.0408 0.053,0.0172 0.0317,0.015 0.12433,0.0589 0.015,0.007 0.15899,0.1 0.14601,0.121 0.129,0.137 0.11099,0.152 0.091,0.165 0.069,0.175 0.047,0.183 0.024,0.187 v 0.188 l -0.024,0.187 -0.047,0.183 -0.069,0.175 -0.016,0.029 -0.075,0.136 -0.11099,0.152 -0.129,0.137 -0.14601,0.121 -0.15899,0.1 -0.015,0.007 -0.15599,0.0739 -0.053,0.0172 v 0.0171 0.0388 0.0319 11 h 3.25 v -11 -0.0319 -0.0388 -0.0171 l -0.053,-0.0172 -0.171,-0.081 -0.159,-0.1 -0.14599,-0.121 -0.129,-0.137 -0.11101,-0.152 -0.075,-0.136 -0.016,-0.029 -0.069,-0.175 -0.047,-0.183 -0.024,-0.187 v -0.188 l 0.024,-0.187 0.047,-0.183 0.069,-0.175 0.091,-0.165 0.11101,-0.152 0.129,-0.137 0.14599,-0.121 0.159,-0.1 0.13933,-0.066 0.0317,-0.015 0.053,-0.0172 0.126,-0.0408 0.18599,-0.035 0.18801,-0.012 0.188,0.012 0.18601,0.035 9.9e-4,3.3e-4 0.125,0.0405 0.053,0.0172 0.0317,0.015 0.13933,0.066 0.15899,0.1 0.14601,0.121 0.129,0.137 0.11099,0.152 0.091,0.165 0.069,0.175 0.047,0.183 0.024,0.187 v 0.188 l -0.024,0.187 -0.047,0.183 -0.069,0.175 -0.016,0.029 -0.075,0.136 -0.11099,0.152 -0.129,0.137 -0.14601,0.121 -0.15899,0.1 -0.16899,0.08 -0.002,9.5e-4 -0.053,0.0172 v 0.008 0.0799 11 h 2 v -11 -2 h 1 5.5 0.0521 0.0281 0.005 l 0.0548,-0.139 0.091,-0.165 0.11101,-0.152 0.129,-0.137 0.14599,-0.121 0.159,-0.1 0.13933,-0.066 0.0317,-0.015 0.179,-0.058 0.18599,-0.035 0.18801,-0.012 0.188,0.012 0.18601,0.035 0.179,0.058 0.0317,0.015 0.13933,0.066 0.15899,0.1 0.14601,0.121 0.129,0.137 0.11099,0.152 0.091,0.165 0.0548,0.139 0.0142,0.036 0.047,0.183 0.024,0.187 v 0.188 l -0.024,0.187 -0.047,0.183 -0.0142,0.036 -0.0548,0.139 -0.016,0.029 -0.075,0.136 -0.11099,0.152 -0.129,0.137 -0.14601,0.121 -0.15899,0.1 -0.17099,0.081 -0.179,0.058 -0.079,0.0149 -0.107,0.0201 -0.188,0.012 -0.18801,-0.012 -0.18599,-0.035 -0.179,-0.058 -0.171,-0.081 -0.159,-0.1 -0.14599,-0.121 -0.129,-0.137 -0.11101,-0.152 -0.075,-0.136 -0.016,-0.029 -0.0548,-0.139 h -0.0219 -0.0633 -5.5 v 1 11 h 2 v -9 h 1 2.5 0.0521 0.0281 0.005 l 0.0548,-0.139 0.091,-0.165 0.11101,-0.152 0.129,-0.137 0.14599,-0.121 0.1113,-0.07 0.0477,-0.03 0.171,-0.081 0.179,-0.058 0.18599,-0.035 0.18801,-0.012 0.188,0.012 0.18601,0.035 0.179,0.058 0.17099,0.081 0.0477,0.03 0.11129,0.07 0.14601,0.121 0.129,0.137 0.11099,0.152 0.091,0.165 0.0548,0.139 0.0142,0.036 0.047,0.183 0.024,0.187 v 0.188 l -0.024,0.187 -0.047,0.183 -0.0142,0.036 -0.0548,0.139 -0.0689,0.125 -0.0221,0.04 -0.11099,0.152 -0.129,0.137 -0.14601,0.121 -0.15899,0.1 -0.17099,0.081 -0.179,0.058 m -33.08151,-1.73666 2.26487,6.81999 0.20258,0.61 1.09955,3.31101 h -1.416 l -1.05899,-3.31101 h -3.599 l -1.08101,3.31101 h -0.12801 -1.25599 l 0.79684,-2.41432 0.45915,-1.39124 0.0381,-0.11545 2.25088,-6.81999 h 1.02831 0.0569 0.0735 0.0781 0.19023 m -7.41401,0.146 0.95002,0.31801 -0.47501,1.207 -0.873,-0.30246 -0.042,-0.0145 -0.87201,-0.19101 -0.829,-0.063 -1.18299,0.17002 -0.71001,0.50999 -0.23599,0.851 0.0104,0.093 0.0416,0.371 0.11455,0.28746 0.0444,0.11155 0.264,0.33399 0.43,0.309 0.36872,0.18211 0.28728,0.14189 0.88101,0.338 1.05899,0.435 0.371,0.206 0.425,0.236 0.534,0.449 0.33701,0.504 0.0652,0.19099 0.13581,0.39801 0.068,0.676 -0.113,0.867 -0.33899,0.734 -0.0744,0.079 -0.48964,0.52002 -0.089,0.051 -0.45996,0.26326 -0.22501,0.12878 -0.35189,0.0969 -0.61409,0.1691 -1.157,0.089 -0.49909,-0.0229 -0.69792,-0.0321 -0.55099,-0.0902 -0.457,-0.0748 -0.82201,-0.276 v -1.15532 -0.13867 l 1.017,0.35299 0.26201,0.0552 0.74398,0.15678 0.99302,0.071 1.41699,-0.198 0.85,-0.593 0.092,-0.32005 0.192,-0.66794 -0.057,-0.46499 -0.13499,-0.31075 -0.034,-0.0783 -0.25842,-0.28501 -0.0236,-0.026 -0.46302,-0.28999 -0.0555,-0.0259 -0.63948,-0.29813 -0.92799,-0.35699 -0.914,-0.382 -0.72501,-0.428 -0.055,-0.0487 -0.47901,-0.42429 -0.36599,-0.54499 -0.22001,-0.644 -0.073,-0.741 0.10399,-0.78801 0.31401,-0.66499 0.52198,-0.54199 0.19802,-0.11292 0.50699,-0.28909 0.42018,-0.11762 0.44082,-0.12338 1.017,-0.08 0.651,0.0376 0.439,0.0254 0.621,0.1164 0.39799,0.0746 m -9.10198,-0.114 h 1.373 v 2.31474 1.42162 2.71499 0.33664 0.15702 l -0.10401,1.16699 -0.31,0.97101 -0.447,0.67048 -0.069,0.1035 -0.44299,0.34755 -0.267,0.20946 -0.34035,0.12612 -0.56366,0.20888 -0.97649,0.0986 -0.12251,0.0124 -1.31399,-0.29371 -0.65001,-0.14529 -0.45102,-0.50348 -0.72698,-0.81152 -0.0971,-0.54214 -0.26323,-1.46881 -0.0326,-0.18206 v -0.125 -6.76599 h 1.362 v 6.76599 0.049 l 0.20172,1.26679 0.0483,0.3032 0.60901,0.7649 0.14099,0.1771 1.249,0.31399 1.204,-0.31599 0.73199,-0.94901 0.25802,-1.582 v -0.028 -6.78799 m -10.991,10.553 -0.78501,0.0791 -0.763,0.0769 h -2.205 v -0.70442 -0.44957 -0.043 -2.724 -1.06099 -4.50801 -0.57818 -0.62981 h 2.497 l 0.471,0.0509 0.96399,0.10413 1.207,0.463 0.97901,0.77301 0.52075,0.75329 0.20026,0.28971 0.43199,1.28698 0.12893,1.37087 0.0151,0.16014 -0.14086,1.52499 -0.009,0.099 -0.45,1.34801 -0.751,1.07201 -0.96781,0.73624 -0.0562,0.0427 -1.28699,0.467 m -5.99001,-9.33401 h -0.281 -2.706 -1.834 v 0.151 3.14901 h 1.834 2.706 v 1.208 h -2.706 -1.834 v 1.06099 2.724 h 1.834 2.987 v 1.19701 h -2.987 -3.196 v -1.19701 -2.724 -5.418 -1.35899 h 1.362 1.834 2.706 0.281 v 1.20799 m -8.604,9.49001 h -1.125 v -3.92101 -2.55999 l 0.013,-0.64901 0.036,-0.95199 0.06,-1.25701 h -0.065 l -1.19801,5.418 -0.29599,1.33866 -0.571,2.58235 h -0.95566 -0.17933 l -0.42851,-1.974 -1.5275,-7.03688 -0.059,-0.27184 -0.017,-0.0783 h -0.0437 -0.0213 l 0.078,1.19799 0.047,0.993 0.016,0.786 v 4.41 1.974 h -1.114 v -1.974 -8.724 h 0.88596 0.0451 0.0952 0.0878 0.692 l 1.815,8.724 h 0.044 l 1.11101,-5.27618 0.726,-3.44782 h 1.0685 0.7805 v 1.35899 5.418 2.724 1.19701 m 41.504,-8.759 -0.0919,-0.37259 -0.0155,-0.0629 -0.0128,-0.0518 -0.007,-0.0277 -0.10401,0.46901 -0.112,0.446 -0.11898,0.42199 -1.05901,3.418 h 2.56659 0.11984 0.0765 0.0581 l -0.97299,-3.095 -0.17501,-0.59199 -0.152,-0.55301 m -24.696,3.356 -0.402,-2.295 -1.207,-1.37601 -1.39,-0.31709 -0.43351,-0.0989 -0.1885,-0.043 h -0.98399 v 0.043 4.50801 1.06099 2.724 0.043 h 0.703 l 0.19751,-0.043 0.70549,-0.15358 1.265,-0.2754 1.30001,-1.416 0.16157,-0.87902 z"
     fill="none"
     stroke="#ff0000"
     stroke-width="0.1mm"
     id="path18"
     sodipodi:nodetypes="cccccccccccccccccccccccccccccccccccccccccccccccccccccccccccccccccccccccccccccccccccccccccccccccccccccccccccccccccccccccccccccccccccccccccccccccccccccccccccccccccccccccccccccccccccccccccccccccccccccccccccccccccccccccccccccccccccccccccccccccccccccccccccccccccccccccccccccccccccccccccccccccccccccccccccccccccccccccccccccccccccccccccccccccccccccccccccccccccccccccccccccccccccccccccccccccccccccccccccccccccccccccccccccccccccccccccccccccccccccccccccccccccccccccccccccccccccccccccccccccccccccccccccccccccccccccccccccccccccccccccccccccccccccccccccccccccccccccccccccccccccccccccccccccccccccccccccccccccccccccccccccccccccccccccccccccccccccccccccccccccccccccccccccccccccccccccccccccccccccccccccc"
     style="fill:#fff6d5;stroke:#ffffff;stroke-opacity:1" />
  <metadata
     id="metadata309">
    <rdf:RDF>
      <cc:Work
         rdf:about="">
        <dc:title>svgOutput</dc:title>
      </cc:Work>
    </rdf:RDF>
  </metadata>
</svg>
